<svg preserveAspectRatio="none" overflow="visible" style="display: block;" width="16" height="16" viewBox="0 0 16 16" fill="none" xmlns="http://www.w3.org/2000/svg">
<g id="link" clip-path="url(#clip0_notes_link)">
<path id="Vector" d="M6.66677 8.66664C6.95307 9.04939 7.31834 9.36609 7.73781 9.59527C8.15727 9.82444 8.62111 9.96072 9.09787 9.99486C9.57464 10.029 10.0532 9.96022 10.501 9.79316C10.9488 9.6261 11.3555 9.36469 11.6934 9.02664L13.6934 7.02664C14.3006 6.39797 14.6366 5.55596 14.629 4.68197C14.6214 3.80798 14.2709 2.97194 13.6528 2.35391C13.0348 1.73588 12.1988 1.38532 11.3248 1.37773C10.4508 1.37013 9.60878 1.70611 8.98011 2.31331L7.83344 3.45331M9.33357 7.33348C9.04727 6.95073 8.682 6.63402 8.26254 6.40485C7.84308 6.17568 7.37923 6.0394 6.90247 6.00526C6.42571 5.97111 5.94718 6.0399 5.49934 6.20696C5.0515 6.37402 4.64483 6.63543 4.30691 6.97348L2.30691 8.97348C1.69971 9.60215 1.36373 10.4442 1.37133 11.3182C1.37892 12.1921 1.72948 13.0282 2.34751 13.6462C2.96554 14.2642 3.80158 14.6148 4.67557 14.6224C5.54956 14.63 6.39157 14.294 7.02024 13.6868L8.16024 12.5468" stroke="#1A1A1A" stroke-width="2" stroke-linecap="round"/>
</g>
<defs>
<clipPath id="clip0_notes_link">
<rect width="16" height="16" fill="white"/>
</clipPath>
</defs>
</svg>
